<svg width="35" height="35" viewBox="0 0 35 35" fill="none" xmlns="http://www.w3.org/2000/svg">
<g clip-path="url(#clip0_46_1713)">
<path d="M16.2394 0.0414781C16.1071 0.0554234 15.6939 0.104369 15.3294 0.147298C13.86 0.314916 12.1936 0.756244 10.7313 1.3723C5.43892 3.58359 1.45576 8.43519 0.35681 13.9999C0.0981384 15.3234 0.0352478 15.9736 0.0352478 17.4999C0.0352478 19.4673 0.230756 20.8249 0.74892 22.5405C2.44287 28.1541 6.85286 32.557 12.481 34.2575C14.175 34.7691 15.54 34.9646 17.5 34.9646C19.4674 34.9646 20.825 34.7691 22.5405 34.251C28.1542 32.557 32.5571 28.147 34.2576 22.5189C34.7692 20.8249 34.9647 19.4599 34.9647 17.4999C34.9647 16.6668 34.9231 15.7152 34.8739 15.3646C34.3068 11.3189 32.6405 7.91675 29.8624 5.13753C27.0894 2.37964 23.7015 0.707025 19.7394 0.139916C19.1936 0.0628062 16.6665 -0.00774069 16.2394 0.0414781ZM10.5347 11.0665C10.9066 11.1786 11.0805 11.2836 11.3326 11.5354C11.8229 12.0331 11.935 12.3057 11.935 13.0544C11.935 13.6152 11.9136 13.7199 11.746 14.0136C11.4234 14.5594 10.6747 15.0636 10.1568 15.0773C9.79232 15.0849 9.80736 14.9236 10.206 14.5039C10.7379 13.9507 10.8147 13.741 10.8147 12.9144C10.8081 12.1168 10.71 11.8441 10.3392 11.6199C10.0308 11.431 9.69525 11.4449 9.20497 11.6754C7.93076 12.2852 6.55181 14.3149 6.01341 16.3944C5.29892 19.1662 6.56576 21.3846 8.65181 21.0065C9.26048 20.8944 10.4086 20.307 10.9066 19.8444C11.3189 19.4673 11.3189 19.4599 11.3605 18.9912C11.4524 18.0104 12.1444 17.031 13.0695 16.576C13.4955 16.3654 13.6013 16.3452 14.175 16.3452C14.7208 16.3452 14.8468 16.3731 15.1129 16.5194C15.9597 17.0034 15.7847 18.1299 14.8681 18.1299C14.3363 18.1299 14.0629 17.8565 14.4484 17.7105C14.8266 17.5705 14.6855 17.0449 14.2455 16.9262C13.7274 16.7928 13.1389 17.1431 12.7681 17.8149C12.3197 18.627 12.2992 19.5934 12.7255 20.0336C13.1389 20.4746 13.6568 20.1255 14.0563 19.1233C14.2658 18.6128 14.5668 18.3394 14.9174 18.3394C15.225 18.3394 15.2816 18.5286 15.1479 19.1031C14.9515 19.9918 15.085 20.2225 15.6381 19.9502C15.8197 19.8657 16.121 19.6705 16.3026 19.5305L16.6455 19.257L16.8774 18.0457C17.1295 16.6881 17.2265 16.5054 17.7447 16.4084C18.2424 16.3165 18.3545 16.562 18.1718 17.3386L18.0734 17.7734L18.4379 17.4015C19.2986 16.5194 20.356 16.0857 20.7202 16.4499C20.9158 16.6454 20.8944 16.891 20.6147 17.7583C20.4821 18.1718 20.2994 18.8234 20.2163 19.1939C20.0902 19.7536 20.0826 19.887 20.1534 19.9781C20.3776 20.2439 21.0631 19.9704 21.6721 19.3754L22.0289 19.0262L22.0716 18.2486C22.1131 17.3525 22.1965 17.031 22.4347 16.7436C22.6589 16.4778 23.065 16.2823 23.2818 16.3378C23.4986 16.3944 23.4986 16.6039 23.3031 17.2202C23.0297 18.067 23.0584 20.0196 23.3384 20.0196C23.4505 20.0196 24.0239 19.4181 24.3884 18.9141L24.6608 18.5423L24.4439 18.3191C24.0658 17.9199 23.975 17.6612 23.975 17.0096C23.975 16.5344 24.0102 16.3591 24.1286 16.1273C24.3252 15.7641 24.6329 15.4984 24.9971 15.3925C25.3815 15.2739 25.8579 15.4694 26.0534 15.8196C26.25 16.1765 26.201 16.9744 25.9486 17.5212L25.7671 17.9196H26.0118C26.3481 17.9196 26.4808 17.8362 27.0831 17.2691C27.3981 16.9681 27.7624 16.7086 28.0347 16.5825C29.106 16.0794 30.3666 16.3378 30.5758 17.1078C30.7508 17.7241 30.3666 18.1578 29.6936 18.1086C29.2108 18.0736 29.12 17.9473 29.4 17.7105C29.9039 17.2894 29.4 16.7512 28.6789 16.9468C28.2868 17.0523 27.8458 17.4925 27.6152 18.0041C27.1526 19.0262 27.3981 20.2299 28.0626 20.2299C28.3286 20.2299 28.7984 19.7046 28.98 19.1939C29.1968 18.6054 29.6518 18.2349 29.9947 18.3681C30.1839 18.4378 30.1979 18.6268 30.0792 19.2218C29.9458 19.8734 29.9252 20.4823 30.03 20.762C30.0718 20.8665 30.1979 21.0631 30.3174 21.1957C30.5405 21.4475 30.5481 21.5386 30.3589 21.6581C30.2681 21.721 30.1484 21.6934 29.855 21.5323C29.4489 21.3218 29.0986 20.9436 28.9726 20.5868L28.8958 20.3773L28.6158 20.5868C28.4544 20.6989 28.2026 20.8249 28.056 20.8665C27.475 21.0204 26.7605 20.622 26.4252 19.9502C26.2915 19.6904 26.25 18.9281 26.3481 18.6341C26.4039 18.4728 26.4039 18.4728 26.1794 18.5849C26.061 18.6481 25.8089 18.7175 25.6134 18.7389C25.2908 18.7744 25.2415 18.8094 24.9202 19.2152C24.4652 19.7812 23.6597 20.5452 23.3308 20.7065C22.6313 21.0557 22.4005 20.9575 22.2179 20.2362L22.0918 19.7536L21.7905 20.0196C21.406 20.356 20.636 20.762 20.1947 20.8602C19.775 20.951 19.3265 20.8175 19.1447 20.5375C18.8726 20.1178 18.9634 19.2291 19.3968 18.0318C19.7184 17.1431 19.4879 17.1294 18.676 17.9762C18.0736 18.6128 17.815 19.0678 17.6474 19.7749C17.4724 20.5099 17.2618 20.7757 16.7866 20.8878C16.4992 20.951 16.3655 20.7757 16.4224 20.3912L16.4639 20.0825L16.1979 20.2652C15.8197 20.5239 15.3434 20.762 15.0144 20.8528C14.6855 20.9436 14.2518 20.8462 14.1471 20.6636C13.9581 20.3423 13.9581 20.3423 13.6645 20.5728C13.0268 21.091 12.1168 20.9436 11.6552 20.2578L11.5076 20.041L11.0463 20.4681C9.71548 21.686 8.05025 22.2318 6.81787 21.8536C5.2497 21.3784 4.38236 20.0336 4.3963 18.0949C4.40286 16.1489 5.26365 14.0981 6.71314 12.5791C7.53236 11.7246 8.30236 11.2204 9.08658 11.0315C9.65259 10.8915 9.99658 10.8986 10.5347 11.0665Z" fill="#00C4CC"/>
<path d="M24.7237 16.0437C24.5697 16.1974 24.6263 16.8137 24.8221 17.2058C24.9203 17.4087 25.025 17.5701 25.06 17.5701C25.0879 17.5701 25.1508 17.4087 25.2 17.2121C25.375 16.4848 25.06 15.7071 24.7237 16.0437Z" fill="#00C4CC"/>
</g>
<defs>
<clipPath id="clip0_46_1713">
<rect width="35" height="35" fill="white"/>
</clipPath>
</defs>
</svg>
