<svg width="35" height="35" viewBox="0 0 35 35" fill="none" xmlns="http://www.w3.org/2000/svg">
<path d="M5.1444 31.2055L2.39526 0.369629H32.6046L29.8528 31.2008L17.4816 34.6305L5.1444 31.2055Z" fill="#1572B6"/>
<path d="M17.5003 32.0092L27.4969 29.2377L29.8487 2.89087H17.5003V32.0092Z" fill="#33A9DC"/>
<path d="M17.5003 14.0624H22.5047L22.8504 10.1898H17.5003V6.40784H26.9836L26.8929 7.42256L25.9632 17.8444H17.5003V14.0624Z" fill="white"/>
<path d="M17.5227 23.8844L17.506 23.8894L13.2943 22.7521L13.0249 19.7358H9.22906L9.75871 25.6741L17.5055 27.8241L17.5227 27.8192V23.8844Z" fill="#EBEBEB"/>
<path d="M22.1832 17.6846L21.7277 22.7492L17.5096 23.8878V27.8225L25.2627 25.6739L25.3195 25.0348L25.9774 17.6846H22.1832Z" fill="white"/>
<path d="M17.5131 6.40784V10.1898H8.3781L8.30235 9.33991L8.13009 7.42256L8.03958 6.40784H17.5131ZM17.5002 14.063V17.8449H13.3415L13.2658 16.9951L13.0933 15.0777L13.003 14.063H17.5002Z" fill="#EBEBEB"/>
</svg>
