<svg width="39" height="39" viewBox="0 0 39 39" fill="none" xmlns="http://www.w3.org/2000/svg">
<path d="M7.19312 33.1512L4.45459 2.4375H34.5455L31.8033 33.1463L19.4818 36.5625L7.19312 33.1512Z" fill="#E44F26"/>
<path d="M19.5 33.9519L29.4572 31.1915L31.7996 4.94934H19.5V33.9519Z" fill="#F1662A"/>
<path d="M19.5 16.3396H14.5153L14.1716 12.4822H19.5V8.71509H10.0547L10.1449 9.72665L11.0699 20.1067H19.5V16.3396ZM19.5 26.1225L19.4829 26.1274L15.288 24.9951L15.0199 21.9909H11.2381L11.7658 27.9043L19.4829 30.0469L19.5 30.042V26.1225Z" fill="#EBEBEB"/>
<path d="M19.4866 16.3396V20.1067H24.1252L23.6889 24.9927L19.4866 26.1262V30.0456L27.2099 27.9043L27.2659 27.2681L28.1507 17.3512L28.2434 16.3396H19.4866ZM19.4866 8.71509V12.4822H28.5858L28.6614 11.6364L28.8332 9.72665L28.9234 8.71509H19.4866Z" fill="white"/>
</svg>
