<svg width="35" height="35" viewBox="0 0 35 35" fill="none" xmlns="http://www.w3.org/2000/svg">
<path d="M13.0203 26.8298C13.0203 26.8298 11.7168 27.5883 13.9492 27.8442C16.654 28.1532 18.0362 28.1089 21.0162 27.5456C21.0162 27.5456 21.8012 28.0365 22.8955 28.4619C16.213 31.3248 7.77221 28.296 13.0203 26.8298ZM12.2033 23.0933C12.2033 23.0933 10.7409 24.1758 12.9752 24.4071C15.8646 24.7054 18.1459 24.7298 22.0954 23.9696C22.0954 23.9696 22.6404 24.5233 23.4987 24.8258C15.4208 27.1883 6.42361 25.0117 12.2033 23.0933Z" fill="#0074BD"/>
<path d="M19.0865 16.7538C20.734 18.6501 18.6545 20.3549 18.6545 20.3549C18.6545 20.3549 22.8351 18.1972 20.9155 15.494C19.1221 12.9743 17.7472 11.7228 25.1907 7.40576C25.1907 7.40604 13.5065 10.3233 19.0865 16.7538Z" fill="#EA2D2E"/>
<path d="M27.9243 29.5939C27.9243 29.5939 28.8892 30.3896 26.8612 31.0046C23.0051 32.1727 10.8087 32.5249 7.4214 31.0513C6.20432 30.5214 8.48753 29.7867 9.20585 29.6316C9.95479 29.4695 10.3824 29.499 10.3824 29.499C9.02811 28.5456 1.62889 31.3721 6.6246 32.1828C20.2475 34.3911 31.4574 31.1883 27.9243 29.5939ZM13.6478 19.2211C13.6478 19.2211 7.44464 20.6946 11.4513 21.2303C13.1433 21.4567 16.5148 21.4047 19.6574 21.1411C22.225 20.9254 24.8016 20.4647 24.8016 20.4647C24.8016 20.4647 23.8971 20.8527 23.2419 21.2995C16.9414 22.9568 4.77288 22.1848 8.27643 20.4906C11.2383 19.0581 13.6478 19.2211 13.6478 19.2211ZM24.7759 25.4409C31.1801 22.114 28.2188 18.9167 26.1519 19.3474C25.6466 19.4527 25.4199 19.5443 25.4199 19.5443C25.4199 19.5443 25.608 19.2492 25.9667 19.1223C30.0555 17.6854 33.1994 23.3614 24.648 25.6097C24.648 25.6091 24.7461 25.5202 24.7759 25.4409Z" fill="#0074BD"/>
<path d="M20.9155 0.433838C20.9155 0.433838 24.4614 3.98196 17.5514 9.43622C12.0099 13.8129 16.2878 16.3077 17.5495 19.1594C14.3144 16.241 11.9415 13.6715 13.5332 11.2803C15.8706 7.77099 22.3458 6.06884 20.9155 0.433838Z" fill="#EA2D2E"/>
<path d="M14.2773 34.4588C20.423 34.8517 29.8632 34.2401 30.0866 31.3318C30.0866 31.3318 29.657 32.4343 25.0069 33.309C19.7608 34.2967 13.2891 34.1816 9.4519 33.548C9.4519 33.5483 10.238 34.1991 14.2773 34.4588Z" fill="#0074BD"/>
</svg>
