<svg width="35" height="35" viewBox="0 0 35 35" fill="none" xmlns="http://www.w3.org/2000/svg">
<g clip-path="url(#clip0_46_1690)">
<path d="M26.7969 0H8.20312C3.67266 0 0 3.67266 0 8.20312V26.7969C0 31.3273 3.67266 35 8.20312 35H26.7969C31.3273 35 35 31.3273 35 26.7969V8.20312C35 3.67266 31.3273 0 26.7969 0Z" fill="#F0DB4F"/>
<path d="M9.20283 29.2483L11.8812 27.6274C12.398 28.5436 12.868 29.3188 13.9955 29.3188C15.0763 29.3188 15.7577 28.896 15.7577 27.2516V16.0683H19.0469V27.2981C19.0469 30.7047 17.0499 32.2553 14.1365 32.2553C11.5053 32.2553 9.97803 30.8927 9.2027 29.2481M20.8334 28.8959L23.5114 27.3454C24.2165 28.4967 25.1328 29.3424 26.7537 29.3424C28.1166 29.3424 28.9856 28.661 28.9856 27.7212C28.9856 26.5935 28.0929 26.1941 26.5892 25.5364L25.7671 25.1838C23.3941 24.1738 21.8199 22.905 21.8199 20.2267C21.8199 17.7597 23.6995 15.8801 26.6364 15.8801C28.7274 15.8801 30.231 16.6086 31.3116 18.5116L28.7507 20.1561C28.1868 19.1459 27.5762 18.7466 26.6364 18.7466C25.6731 18.7466 25.0622 19.3574 25.0622 20.1561C25.0622 21.1428 25.6731 21.5423 27.0826 22.1533L27.9049 22.5057C30.7006 23.704 32.2748 24.9254 32.2748 27.6742C32.2748 30.6347 29.9489 32.2556 26.8242 32.2556C23.7701 32.2556 21.7965 30.799 20.8334 28.8959Z" fill="#323330"/>
</g>
<defs>
<clipPath id="clip0_46_1690">
<rect width="35" height="35" fill="white"/>
</clipPath>
</defs>
</svg>
