<svg width="38" height="38" viewBox="0 0 38 38" fill="none" xmlns="http://www.w3.org/2000/svg">
<g clip-path="url(#clip0_46_1744)">
<path d="M29.0938 0H8.90625C3.98746 0 0 3.98746 0 8.90625V29.0938C0 34.0125 3.98746 38 8.90625 38H29.0938C34.0125 38 38 34.0125 38 29.0938V8.90625C38 3.98746 34.0125 0 29.0938 0Z" fill="#00618A"/>
<mask id="mask0_46_1744" style="mask-type:luminance" maskUnits="userSpaceOnUse" x="5" y="5" width="28" height="28">
<path d="M5.64062 5.64062H32.3594V32.3594H5.64062V5.64062Z" fill="white"/>
</mask>
<g mask="url(#mask0_46_1744)">
<path fill-rule="evenodd" clip-rule="evenodd" d="M30.2517 26.453C28.7985 26.4126 27.6711 26.5615 26.7263 26.959C26.4543 27.0682 26.0177 27.0682 25.9818 27.4107C26.1272 27.5544 26.1448 27.7895 26.2723 27.9887C26.49 28.3501 26.8721 28.837 27.2171 29.0897L28.3799 29.9206C29.0886 30.3536 29.8881 30.6067 30.5784 31.0401C30.9783 31.2931 31.3779 31.6181 31.7778 31.8893C31.9815 32.0338 32.1048 32.269 32.3594 32.3588V32.3042C32.2323 32.1423 32.1957 31.9076 32.0691 31.7262L31.5232 31.2028C30.9967 30.4986 30.3421 29.8841 29.6335 29.379C29.0519 28.9816 27.7804 28.4399 27.5441 27.7721L27.5083 27.7316C27.9075 27.6912 28.3799 27.5507 28.7619 27.4423C29.3801 27.2804 29.943 27.316 30.5784 27.1536L31.4513 26.9006V26.7387C31.1241 26.4138 30.8879 25.9802 30.543 25.6735C29.6164 24.8789 28.5981 24.1022 27.5441 23.4521C26.9809 23.0911 26.2539 22.8559 25.6543 22.5495C25.4357 22.441 25.0727 22.3868 24.9457 22.2063C24.6178 21.8097 24.4365 21.2854 24.2004 20.8156L22.7105 17.6735C22.3835 16.9691 22.1831 16.2648 21.784 15.6148C19.912 12.5447 17.8765 10.6849 14.751 8.86059C14.079 8.48134 13.2795 8.3182 12.4294 8.11989L11.0668 8.04716C10.7755 7.92084 10.485 7.5775 10.2306 7.41481C9.19483 6.76466 6.52355 5.35628 5.75969 7.21249C5.2691 8.38619 6.48689 9.54177 6.90028 10.138C7.20978 10.5534 7.60893 11.0227 7.82757 11.4924C7.94974 11.7992 7.99056 12.1246 8.11807 12.4497C8.40841 13.2441 8.68124 14.1294 9.06287 14.8701C9.26653 15.2493 9.48043 15.6472 9.73485 15.99C9.88032 16.1924 10.1349 16.2791 10.1891 16.604C9.9345 16.9654 9.91698 17.5066 9.77151 17.9588C9.11705 19.9995 9.37162 22.5277 10.2982 24.0302C10.5894 24.4814 11.2756 25.4751 12.2068 25.0955C13.0245 24.7704 12.8421 23.7412 13.0783 22.8381C13.1332 22.6216 13.0967 22.4771 13.2053 22.3322V22.3727L13.9506 23.8715C14.5139 24.7563 15.4956 25.6775 16.3129 26.2919C16.7487 26.617 17.0941 27.1772 17.639 27.3755V27.3209H17.6032C17.494 27.1589 17.3302 27.086 17.1849 26.9597C16.8579 26.6348 16.4945 26.2373 16.24 25.8763C15.4772 24.8651 14.8052 23.7452 14.2052 22.5896C13.9141 22.0298 13.6595 21.4157 13.4241 20.856C13.3141 20.6391 13.3141 20.3136 13.1329 20.206C12.8599 20.6026 12.4609 20.9467 12.2601 21.434C11.9147 22.2103 11.8789 23.1676 11.7518 24.1609C11.6785 24.179 11.711 24.1609 11.6785 24.2013C11.0977 24.0573 10.8973 23.4606 10.6795 22.9555C10.1344 21.6733 10.0432 19.6146 10.5156 18.1336C10.6427 17.7544 11.1885 16.5624 10.9706 16.2013C10.8607 15.8581 10.4981 15.6598 10.2977 15.3886C10.0616 15.0454 9.80788 14.6122 9.64415 14.233C9.20834 13.2211 8.99043 12.1019 8.51751 11.0906C8.29886 10.6209 7.91768 10.1331 7.60848 9.70016C7.26307 9.21239 6.88232 8.86905 6.6095 8.29148C6.51865 8.08916 6.39159 7.7678 6.53691 7.55078C6.57283 7.40635 6.64601 7.34846 6.79074 7.3161C7.02675 7.11363 7.69977 7.37028 7.93593 7.4779C8.60791 7.74909 9.17123 8.00173 9.73455 8.38055C9.98912 8.56105 10.2619 8.90438 10.589 8.99508H10.971C11.5526 9.12125 12.2063 9.03545 12.7508 9.1974C13.7142 9.50496 14.5861 9.95591 15.368 10.444C17.7482 11.9429 19.7113 14.0739 21.0373 16.6206C21.2552 17.0359 21.3461 17.4152 21.5465 17.8486C21.9285 18.7339 22.401 19.6366 22.7818 20.5039C23.1638 21.3526 23.5271 22.2201 24.0721 22.9243C24.345 23.3036 25.4348 23.5019 25.9252 23.7006C26.2889 23.8626 26.8518 24.0083 27.1797 24.2067C27.797 24.5859 28.415 25.0194 28.9961 25.4347C29.2864 25.6508 30.1956 26.1025 30.2497 26.4628L30.2517 26.453ZM11.7203 10.7597C11.4694 10.7575 11.2191 10.7879 10.9759 10.85V10.8905H11.0117C11.1572 11.1795 11.4117 11.3782 11.5933 11.6312L12.0116 12.4981L12.0475 12.4577C12.3019 12.2772 12.4294 11.9882 12.4294 11.5552C12.3203 11.4289 12.3024 11.3021 12.2115 11.1758C12.1024 10.9953 11.8663 10.9046 11.7203 10.7606V10.7597Z" fill="white"/>
</g>
</g>
<defs>
<clipPath id="clip0_46_1744">
<rect width="38" height="38" fill="white"/>
</clipPath>
</defs>
</svg>
