<svg width="40" height="40" viewBox="0 0 40 40" fill="none" xmlns="http://www.w3.org/2000/svg">
<path d="M16.4333 3.33325C15.1691 3.33325 13.9567 3.83545 13.0628 4.72938C12.1689 5.6233 11.6667 6.83572 11.6667 8.09992V10.8999H18.8167C19.4667 10.8999 20 11.8499 20 12.4999H8.10001C6.83581 12.4999 5.62339 13.0021 4.72947 13.896C3.83554 14.79 3.33334 16.0024 3.33334 17.2666V23.5683C3.33334 24.8324 3.83554 26.0449 4.72947 26.9388C5.62339 27.8327 6.83581 28.3349 8.10001 28.3349H10.0667V23.8683C10.0645 23.2431 10.1857 22.6236 10.4235 22.0454C10.6612 21.4672 11.0107 20.9416 11.452 20.4987C11.8933 20.0559 12.4177 19.7045 12.9951 19.4647C13.5725 19.225 14.1915 19.1016 14.8167 19.1016H23.5667C26.2 19.1016 28.3333 16.9833 28.3333 14.3499V8.09992C28.3333 6.83572 27.8311 5.6233 26.9372 4.72938C26.0433 3.83545 24.8309 3.33325 23.5667 3.33325H16.4333ZM15.2333 6.01659C15.9 6.01659 16.4333 6.21659 16.4333 7.19992C16.4333 8.18325 15.9 8.68492 15.2333 8.68492C14.5833 8.68492 14.05 8.18492 14.05 7.20159C14.05 6.21825 14.5833 6.01659 15.2333 6.01659Z" fill="#0288D1"/>
<path d="M29.9317 11.6667V16.1334C29.9336 16.7585 29.8122 17.3777 29.5744 17.9558C29.3366 18.5338 28.987 19.0592 28.5457 19.5019C28.1045 19.9445 27.5802 20.2958 27.0029 20.5354C26.4256 20.7751 25.8067 20.8984 25.1817 20.8984H16.4333C15.8081 20.8962 15.1887 21.0175 14.6105 21.2552C14.0322 21.4929 13.5066 21.8425 13.0638 22.2838C12.6209 22.725 12.2696 23.2494 12.0298 23.8268C11.7901 24.4042 11.6667 25.0232 11.6667 25.6484V31.8984C11.6667 33.1626 12.1689 34.375 13.0628 35.269C13.9567 36.1629 15.1691 36.6651 16.4333 36.6651H23.5667C24.8306 36.6651 26.0427 36.1631 26.9366 35.2695C27.8305 34.376 28.3329 33.164 28.3333 31.9001V29.1001H21.1817C20.5317 29.1001 20 28.1501 20 27.5001H31.9C33.1642 27.5001 34.3766 26.9979 35.2705 26.104C36.1645 25.21 36.6667 23.9976 36.6667 22.7334V16.4334C36.6667 15.1692 36.1645 13.9568 35.2705 13.0629C34.3766 12.1689 33.1642 11.6667 31.9 11.6667H29.9317ZM13.8667 19.1884L13.86 19.1951L13.9233 19.1884H13.8667ZM24.7667 31.3151C25.4167 31.3151 25.95 31.8151 25.95 32.7984C25.95 32.9538 25.9194 33.1077 25.8599 33.2513C25.8004 33.3948 25.7133 33.5253 25.6034 33.6352C25.4935 33.745 25.3631 33.8322 25.2195 33.8917C25.0759 33.9511 24.9221 33.9817 24.7667 33.9817C24.1 33.9817 23.5667 33.7818 23.5667 32.7984C23.5667 31.8151 24.1 31.3151 24.7667 31.3151Z" fill="#FDD835"/>
</svg>
