<svg width="38" height="38" viewBox="0 0 38 38" fill="none" xmlns="http://www.w3.org/2000/svg">
<path d="M19 14.25C27.8397 14.25 33.25 17.3256 33.25 19C33.25 20.6744 27.8397 23.75 19 23.75C10.1603 23.75 4.75 20.6744 4.75 19C4.75 17.3256 10.1603 14.25 19 14.25ZM19 11.875C9.81825 11.875 2.375 15.0646 2.375 19C2.375 22.9354 9.81825 26.125 19 26.125C28.1817 26.125 35.625 22.9354 35.625 19C35.625 15.0646 28.1817 11.875 19 11.875Z" fill="#00BCD4"/>
<path d="M19 16.625C18.5303 16.625 18.0711 16.7643 17.6805 17.0253C17.29 17.2862 16.9855 17.6572 16.8058 18.0911C16.626 18.5251 16.579 19.0026 16.6706 19.4633C16.7623 19.924 16.9885 20.3472 17.3206 20.6794C17.6528 21.0115 18.076 21.2377 18.5367 21.3294C18.9974 21.421 19.4749 21.374 19.9089 21.1942C20.3428 21.0145 20.7138 20.71 20.9747 20.3195C21.2357 19.9289 21.375 19.4697 21.375 19C21.375 18.3701 21.1248 17.766 20.6794 17.3206C20.234 16.8752 19.6299 16.625 19 16.625Z" fill="#00BCD4"/>
<path d="M12.4189 6.53967C14.8141 6.53967 19.4691 10.3124 23.1135 16.6251C27.5334 24.2809 27.5749 30.5034 26.125 31.3406C25.9577 31.4273 25.7705 31.4683 25.5823 31.4594C23.1871 31.4594 18.5309 27.6879 14.8865 21.3751C10.4666 13.7193 10.4251 7.4968 11.875 6.65961C12.0426 6.57268 12.2303 6.53052 12.4189 6.53967ZM12.4177 4.16586C11.8125 4.15491 11.2153 4.30534 10.6875 4.60167C7.27938 6.56936 8.23888 14.6111 12.8298 22.5626C16.7295 29.3195 21.9973 33.8355 25.5835 33.8355C26.1885 33.8456 26.7853 33.6943 27.3125 33.3974C30.7206 31.4309 29.7611 23.3891 25.1703 15.4376C21.2705 8.68074 16.0028 4.16467 12.4165 4.16467L12.4177 4.16586Z" fill="#00BCD4"/>
<path d="M25.5823 6.53955C25.7705 6.5306 25.9577 6.57157 26.125 6.6583C27.5749 7.49667 27.5334 13.7192 23.1135 21.375C19.4679 27.6877 14.8129 31.4604 12.4177 31.4604C12.2295 31.4694 12.0422 31.4284 11.875 31.3417C10.425 30.5021 10.4666 24.2796 14.8865 16.625C18.5321 10.3122 23.1871 6.53955 25.5823 6.53955ZM25.5823 4.16455C21.996 4.16455 16.7295 8.6818 12.8285 15.4375C8.24005 23.389 7.27936 31.4307 10.6875 33.3972C11.215 33.6944 11.8123 33.8457 12.4177 33.8354C16.0039 33.8354 21.2705 29.3182 25.1714 22.5625C29.7599 14.611 30.7206 6.56924 27.3125 4.60274C26.7849 4.30557 26.1877 4.15432 25.5823 4.16455Z" fill="#00BCD4"/>
</svg>
