<svg width="29" height="29" viewBox="0 0 29 29" fill="none" xmlns="http://www.w3.org/2000/svg">
<path d="M13.3001 25.375H11.6061C7.27419 25.375 5.10885 25.375 3.76277 24.0036C2.41669 22.6321 2.41669 20.4257 2.41669 16.0105C2.41669 11.5964 2.41669 9.38879 3.76277 8.01733C5.10885 6.64587 7.27419 6.64587 11.6061 6.64587H16.2014C20.5332 6.64587 22.6998 6.64587 24.0459 8.01733C25.0814 9.07221 25.3194 10.6225 25.375 13.2917" stroke="#E27C00" stroke-width="1.8125" stroke-linecap="round"/>
<path d="M24.1873 24.1944L26.5834 26.5833M25.4391 21.1772C25.4486 20.6116 25.3455 20.0497 25.1356 19.5244C24.9257 18.999 24.6134 18.5207 24.2167 18.1174C23.8201 17.714 23.3471 17.3936 22.8254 17.1749C22.3037 16.9563 21.7436 16.8436 21.1779 16.8436C20.6122 16.8436 20.0522 16.9563 19.5305 17.1749C19.0087 17.3936 18.5358 17.714 18.1391 18.1174C17.7425 18.5207 17.4301 18.999 17.2203 19.5244C17.0104 20.0497 16.9072 20.6116 16.9167 21.1772C16.9356 22.2949 17.3928 23.3605 18.1899 24.1442C18.9869 24.928 20.0601 25.3672 21.1779 25.3672C22.2958 25.3672 23.3689 24.928 24.166 24.1442C24.9631 23.3605 25.4203 22.2949 25.4391 21.1772Z" stroke="#E27C00" stroke-width="1.8125" stroke-linecap="round" stroke-linejoin="round"/>
<path d="M19.3334 6.64579L19.2125 6.27121C18.6144 4.41038 18.316 3.47996 17.6042 2.94829C16.8913 2.41663 15.9464 2.41663 14.053 2.41663H13.7352C11.8441 2.41663 10.898 2.41663 10.1863 2.94829C9.47337 3.47996 9.17492 4.41038 8.57679 6.27121L8.45837 6.64579" stroke="#E27C00" stroke-width="1.8125"/>
</svg>
