<svg width="28" height="28" viewBox="0 0 28 28" fill="none" xmlns="http://www.w3.org/2000/svg">
<path d="M14.1166 21.6417L14 21.7583L13.8716 21.6417C8.32998 16.6133 4.66665 13.2883 4.66665 9.91667C4.66665 7.58333 6.41665 5.83333 8.74998 5.83333C10.5466 5.83333 12.2966 7 12.915 8.58667H15.085C15.7033 7 17.4533 5.83333 19.25 5.83333C21.5833 5.83333 23.3333 7.58333 23.3333 9.91667C23.3333 13.2883 19.67 16.6133 14.1166 21.6417ZM19.25 3.5C17.22 3.5 15.2716 4.445 14 5.92667C12.7283 4.445 10.78 3.5 8.74998 3.5C5.15665 3.5 2.33331 6.31167 2.33331 9.91667C2.33331 14.315 6.29998 17.92 12.3083 23.3683L14 24.9083L15.6916 23.3683C21.7 17.92 25.6666 14.315 25.6666 9.91667C25.6666 6.31167 22.8433 3.5 19.25 3.5Z" fill="#B10303"/>
</svg>
