<svg width="131" height="33" viewBox="0 0 131 33" fill="none" xmlns="http://www.w3.org/2000/svg">
<path d="M6.83374 24H1.16144V8.65406H6.82625C8.38981 8.65406 9.73608 8.96128 10.865 9.57571C11.999 10.1852 12.8732 11.0643 13.4876 12.2133C14.1021 13.3572 14.4093 14.726 14.4093 16.3195C14.4093 17.9181 14.1021 19.2918 13.4876 20.4408C12.8782 21.5897 12.0065 22.4714 10.8725 23.0858C9.73858 23.6953 8.39231 24 6.83374 24ZM4.87054 20.8379H6.69137C7.55058 20.8379 8.27742 20.693 8.87187 20.4033C9.47132 20.1086 9.92341 19.6315 10.2281 18.9721C10.5378 18.3077 10.6927 17.4235 10.6927 16.3195C10.6927 15.2155 10.5378 14.3364 10.2281 13.682C9.91841 13.0226 9.46133 12.548 8.85689 12.2583C8.25744 11.9635 7.51811 11.8162 6.63892 11.8162H4.87054V20.8379ZM19.8193 24.1948C19.085 24.1948 18.4331 24.0724 17.8636 23.8277C17.2992 23.5779 16.8521 23.2032 16.5224 22.7037C16.1977 22.1991 16.0353 21.5672 16.0353 20.8079C16.0353 20.1685 16.1477 19.629 16.3725 19.1894C16.5973 18.7498 16.907 18.3926 17.3016 18.1179C17.6963 17.8431 18.1509 17.6358 18.6654 17.496C19.1799 17.3511 19.7294 17.2537 20.3139 17.2037C20.9683 17.1438 21.4953 17.0813 21.8949 17.0164C22.2946 16.9465 22.5843 16.8491 22.7641 16.7242C22.949 16.5943 23.0414 16.412 23.0414 16.1772V16.1397C23.0414 15.7551 22.909 15.4578 22.6443 15.248C22.3795 15.0382 22.0223 14.9333 21.5727 14.9333C21.0882 14.9333 20.6985 15.0382 20.4038 15.248C20.1091 15.4578 19.9217 15.7476 19.8418 16.1172L16.4624 15.9973C16.5623 15.298 16.8196 14.6735 17.2342 14.124C17.6538 13.5696 18.2283 13.135 18.9576 12.8202C19.692 12.5005 20.5737 12.3407 21.6027 12.3407C22.337 12.3407 23.0139 12.4281 23.6333 12.6029C24.2528 12.7728 24.7923 13.0226 25.2519 13.3523C25.7114 13.677 26.0661 14.0766 26.3159 14.5512C26.5707 15.0257 26.698 15.5677 26.698 16.1772V24H23.2512V22.3965H23.1613C22.9565 22.7861 22.6942 23.1158 22.3745 23.3856C22.0598 23.6553 21.6876 23.8576 21.258 23.9925C20.8334 24.1274 20.3539 24.1948 19.8193 24.1948ZM20.9508 21.797C21.3454 21.797 21.7001 21.7171 22.0148 21.5572C22.3345 21.3974 22.5893 21.1776 22.7791 20.8978C22.969 20.6131 23.0639 20.2834 23.0639 19.9087V18.8148C22.959 18.8697 22.8316 18.9197 22.6817 18.9646C22.5369 19.0096 22.377 19.052 22.2022 19.092C22.0273 19.132 21.8475 19.1669 21.6627 19.1969C21.4778 19.2269 21.3005 19.2543 21.1306 19.2793C20.786 19.3343 20.4912 19.4192 20.2465 19.5341C20.0067 19.649 19.8218 19.7988 19.692 19.9837C19.5671 20.1635 19.5046 20.3783 19.5046 20.6281C19.5046 21.0077 19.6395 21.2975 19.9093 21.4973C20.184 21.6971 20.5312 21.797 20.9508 21.797ZM32.6026 17.436V24H28.9385V12.4905H32.4228V14.6036H32.5502C32.8049 13.8993 33.2395 13.3473 33.854 12.9476C34.4684 12.543 35.2003 12.3407 36.0495 12.3407C36.8587 12.3407 37.5606 12.523 38.155 12.8877C38.7545 13.2473 39.2191 13.7519 39.5488 14.4013C39.8835 15.0457 40.0483 15.8 40.0433 16.6642V24H36.3792V17.3836C36.3842 16.7441 36.2218 16.2446 35.8921 15.8849C35.5674 15.5253 35.1153 15.3454 34.5359 15.3454C34.1512 15.3454 33.8115 15.4304 33.5168 15.6002C33.2271 15.765 33.0023 16.0023 32.8424 16.312C32.6876 16.6218 32.6076 16.9964 32.6026 17.436ZM56.2416 14.214H52.495C52.4451 13.8293 52.3427 13.4821 52.1878 13.1724C52.033 12.8627 51.8281 12.5979 51.5734 12.3781C51.3186 12.1583 51.0164 11.991 50.6667 11.8761C50.322 11.7562 49.9399 11.6963 49.5203 11.6963C48.7759 11.6963 48.134 11.8786 47.5945 12.2433C47.06 12.6079 46.6479 13.135 46.3582 13.8243C46.0734 14.5137 45.931 15.3479 45.931 16.327C45.931 17.3461 46.0759 18.2003 46.3657 18.8897C46.6604 19.5741 47.0725 20.0911 47.602 20.4408C48.1365 20.7854 48.7684 20.9578 49.4978 20.9578C49.9074 20.9578 50.2796 20.9053 50.6143 20.8004C50.9539 20.6955 51.2512 20.5432 51.5059 20.3433C51.7657 20.1385 51.978 19.8913 52.1429 19.6015C52.3127 19.3068 52.4301 18.9746 52.495 18.6049L56.2416 18.6274C56.1767 19.3068 55.9793 19.9762 55.6496 20.6356C55.3249 21.295 54.8779 21.8969 54.3084 22.4414C53.7389 22.9809 53.0445 23.4105 52.2253 23.7302C51.411 24.05 50.4769 24.2098 49.4229 24.2098C48.0341 24.2098 46.7903 23.9051 45.6913 23.2956C44.5973 22.6812 43.7331 21.787 43.0986 20.6131C42.4642 19.4392 42.147 18.0105 42.147 16.327C42.147 14.6386 42.4692 13.2074 43.1136 12.0335C43.758 10.8595 44.6297 9.96785 45.7287 9.35841C46.8277 8.74897 48.0591 8.44425 49.4229 8.44425C50.352 8.44425 51.2112 8.57413 52.0005 8.83389C52.7898 9.08866 53.4841 9.46332 54.0836 9.95786C54.683 10.4474 55.1701 11.0494 55.5447 11.7637C55.9194 12.4781 56.1517 13.2948 56.2416 14.214ZM63.7366 24.2173C62.5277 24.2173 61.4887 23.97 60.6195 23.4755C59.7553 22.9759 59.0884 22.2816 58.6188 21.3924C58.1542 20.4982 57.9219 19.4617 57.9219 18.2827C57.9219 17.0988 58.1542 16.0623 58.6188 15.1731C59.0884 14.2789 59.7553 13.5845 60.6195 13.09C61.4887 12.5905 62.5277 12.3407 63.7366 12.3407C64.9455 12.3407 65.9821 12.5905 66.8463 13.09C67.7155 13.5845 68.3824 14.2789 68.8469 15.1731C69.3165 16.0623 69.5513 17.0988 69.5513 18.2827C69.5513 19.4617 69.3165 20.4982 68.8469 21.3924C68.3824 22.2816 67.7155 22.9759 66.8463 23.4755C65.9821 23.97 64.9455 24.2173 63.7366 24.2173ZM63.7591 21.4523C64.1987 21.4523 64.5708 21.3175 64.8756 21.0477C65.1803 20.778 65.4126 20.4033 65.5724 19.9237C65.7373 19.4442 65.8197 18.8897 65.8197 18.2603C65.8197 17.6208 65.7373 17.0614 65.5724 16.5818C65.4126 16.1022 65.1803 15.7276 64.8756 15.4578C64.5708 15.1881 64.1987 15.0532 63.7591 15.0532C63.3045 15.0532 62.9199 15.1881 62.6051 15.4578C62.2954 15.7276 62.0582 16.1022 61.8933 16.5818C61.7334 17.0614 61.6535 17.6208 61.6535 18.2603C61.6535 18.8897 61.7334 19.4442 61.8933 19.9237C62.0582 20.4033 62.2954 20.778 62.6051 21.0477C62.9199 21.3175 63.3045 21.4523 63.7591 21.4523ZM75.632 24.1648C74.7827 24.1648 74.0109 23.9451 73.3166 23.5055C72.6222 23.0659 72.0677 22.4065 71.6531 21.5273C71.2385 20.6481 71.0312 19.5566 71.0312 18.2528C71.0312 16.899 71.246 15.785 71.6756 14.9108C72.1052 14.0366 72.6672 13.3897 73.3615 12.9701C74.0609 12.5505 74.8127 12.3407 75.617 12.3407C76.2214 12.3407 76.7384 12.4456 77.1681 12.6554C77.5977 12.8602 77.9523 13.125 78.2321 13.4497C78.5118 13.7744 78.7241 14.1116 78.869 14.4612H78.9439V8.65406H82.6081V24H78.9814V22.1342H78.869C78.7141 22.4889 78.4943 22.8211 78.2096 23.1308C77.9249 23.4405 77.5677 23.6903 77.1381 23.8801C76.7135 24.0699 76.2114 24.1648 75.632 24.1648ZM76.9058 21.31C77.3504 21.31 77.73 21.1851 78.0448 20.9353C78.3595 20.6805 78.6017 20.3234 78.7716 19.8638C78.9414 19.4042 79.0264 18.8647 79.0264 18.2453C79.0264 17.6158 78.9414 17.0738 78.7716 16.6193C78.6067 16.1647 78.3645 15.815 78.0448 15.5702C77.73 15.3254 77.3504 15.2031 76.9058 15.2031C76.4512 15.2031 76.0666 15.3279 75.7519 15.5777C75.4371 15.8275 75.1974 16.1797 75.0325 16.6342C74.8727 17.0888 74.7927 17.6258 74.7927 18.2453C74.7927 18.8647 74.8752 19.4042 75.04 19.8638C75.2049 20.3234 75.4421 20.6805 75.7519 20.9353C76.0666 21.1851 76.4512 21.31 76.9058 21.31ZM90.3054 24.2173C89.1015 24.2173 88.0624 23.98 87.1882 23.5055C86.319 23.0259 85.6497 22.344 85.1801 21.4598C84.7155 20.5706 84.4832 19.5141 84.4832 18.2902C84.4832 17.1013 84.718 16.0623 85.1876 15.1731C85.6572 14.2789 86.319 13.5845 87.1733 13.09C88.0275 12.5905 89.0341 12.3407 90.193 12.3407C91.0122 12.3407 91.7616 12.4681 92.4409 12.7228C93.1203 12.9776 93.7073 13.3548 94.2018 13.8543C94.6964 14.3538 95.081 14.9708 95.3558 15.7051C95.6305 16.4344 95.7679 17.2712 95.7679 18.2153V19.1295H85.7646V17.0014H92.3585C92.3535 16.6118 92.2611 16.2646 92.0813 15.9599C91.9014 15.6551 91.6542 15.4179 91.3394 15.248C91.0297 15.0732 90.6726 14.9858 90.2679 14.9858C89.8583 14.9858 89.4911 15.0782 89.1664 15.263C88.8417 15.4428 88.5845 15.6901 88.3946 16.0048C88.2048 16.3145 88.1049 16.6667 88.0949 17.0614V19.2269C88.0949 19.6964 88.1873 20.1086 88.3722 20.4632C88.557 20.8129 88.8193 21.0852 89.1589 21.28C89.4986 21.4748 89.9033 21.5722 90.3728 21.5722C90.6975 21.5722 90.9923 21.5273 91.257 21.4373C91.5218 21.3474 91.7491 21.2151 91.9389 21.0402C92.1287 20.8654 92.2711 20.6506 92.366 20.3958L95.7304 20.4932C95.5906 21.2475 95.2833 21.9044 94.8088 22.4639C94.3392 23.0184 93.7223 23.4505 92.958 23.7602C92.1937 24.0649 91.3095 24.2173 90.3054 24.2173Z" fill="black"/>
<g clip-path="url(#clip0_46_1537)">
<path d="M118.63 3.87304C118.88 3.94308 119.114 4.06176 119.319 4.2223C119.523 4.38284 119.694 4.5821 119.821 4.80868C119.948 5.03527 120.03 5.28473 120.061 5.54282C120.092 5.8009 120.072 6.06255 120.001 6.31281L114.158 27.1326C114.016 27.6378 113.679 28.0661 113.222 28.3232C112.765 28.5803 112.224 28.6451 111.719 28.5035C111.213 28.3618 110.785 28.0252 110.528 27.5678C110.271 27.1104 110.206 26.5696 110.348 26.0644L116.191 5.24195C116.261 4.99175 116.38 4.75783 116.541 4.55354C116.701 4.34926 116.901 4.17863 117.127 4.05138C117.354 3.92414 117.603 3.84278 117.861 3.81195C118.119 3.78112 118.381 3.80143 118.631 3.87172L118.63 3.87304ZM109.319 9.19437C109.69 9.56528 109.898 10.0681 109.898 10.5923C109.898 11.1165 109.69 11.6193 109.319 11.9902L105.125 16.1879L109.322 20.3843C109.693 20.7554 109.901 21.2587 109.901 21.7834C109.901 22.3081 109.692 22.8112 109.321 23.1821C108.95 23.5531 108.447 23.7614 107.922 23.7613C107.397 23.7611 106.894 23.5526 106.523 23.1815L100.928 17.5858C100.557 17.2149 100.349 16.7121 100.349 16.1879C100.349 15.6637 100.557 15.1609 100.928 14.79L106.522 9.19437C106.706 9.01054 106.924 8.86471 107.164 8.76522C107.404 8.66573 107.661 8.61452 107.921 8.61452C108.181 8.61452 108.438 8.66573 108.678 8.76522C108.919 8.86471 109.135 9.01054 109.319 9.19437ZM121.03 11.9902C120.836 11.8091 120.68 11.5907 120.572 11.3481C120.463 11.1054 120.405 10.8435 120.401 10.5778C120.396 10.3122 120.445 10.0484 120.544 9.80207C120.644 9.55575 120.792 9.332 120.98 9.14415C121.168 8.95631 121.391 8.80822 121.638 8.70873C121.884 8.60923 122.148 8.56037 122.413 8.56506C122.679 8.56975 122.941 8.62788 123.184 8.736C123.426 8.84412 123.645 9.00001 123.826 9.19437L129.421 14.7887C129.792 15.1596 130.001 15.6627 130.001 16.1873C130.001 16.7118 129.792 17.2149 129.421 17.5858L123.827 23.1815C123.643 23.3652 123.425 23.511 123.185 23.6105C122.945 23.71 122.688 23.7612 122.428 23.7613C122.169 23.7613 121.911 23.7102 121.671 23.6108C121.431 23.5115 121.213 23.3658 121.029 23.1821C120.846 22.9985 120.7 22.7804 120.6 22.5404C120.501 22.3004 120.45 22.0432 120.449 21.7834C120.449 21.5236 120.501 21.2663 120.6 21.0262C120.699 20.7862 120.845 20.5681 121.029 20.3843L125.225 16.1879L121.03 11.9902Z" fill="black"/>
</g>
<defs>
<clipPath id="clip0_46_1537">
<rect width="31.651" height="31.651" fill="white" transform="translate(99.349 0.362415)"/>
</clipPath>
</defs>
</svg>
